<?xml version="1.0" encoding="UTF-8"?>
<svg width="77px" height="60px" viewBox="0 0 77 60" version="1.1" xmlns="http://www.w3.org/2000/svg" xmlns:xlink="http://www.w3.org/1999/xlink">
    <g id="Learn-german" transform="translate(-46.000000, -15.000000)">
        <g id="navBar">
            <g id="logo-desktop" transform="translate(46.000000, 15.000000)">
                <path d="M54.3281343,13.5570175 C53.8707685,11.6078947 55.1052639,9.66315789 57.0855185,9.21333333 C59.0655949,8.76350877 61.0415718,9.97894737 61.4991157,11.9280702 C61.9564815,13.877193 60.7219861,15.8219298 58.7417315,16.2717544 C56.7616551,16.7215789 54.7856782,15.5061404 54.3281343,13.5570175" id="Fill-1" fill="#1A181B"></path>
                <path d="M32.2763681,58.5942105 C32.2763681,58.8692982 32.1539167,58.9726316 31.9091921,59.0670175 C31.752162,59.1273684 31.5509282,59.1531579 31.3762523,59.1531579 C30.3538634,59.1531579 29.9604861,58.5338596 29.9604861,57.5705263 C29.9604861,56.0652632 30.8780694,55.9103509 31.3762523,55.9103509 C31.5509282,55.9103509 31.752162,55.9361404 31.9091921,55.9963158 C32.1539167,56.0908772 32.2763681,56.1942105 32.2763681,56.4696491 L32.2763681,58.5942105 Z M33.0891458,59.5317544 L33.0891458,53.8201754 C33.0891458,53.6826316 33.0016296,53.6652632 32.9317593,53.6652632 L32.4335764,53.6652632 C32.363706,53.6652632 32.2763681,53.6826316 32.2763681,53.8201754 L32.2763681,55.4373684 C32.2763681,55.5061404 32.2589005,55.5489474 32.1977639,55.5489474 C32.1191597,55.5489474 31.8220324,55.3080702 31.2015764,55.3080702 C29.9430185,55.3080702 29.1040394,56.1082456 29.1040394,57.5877193 C29.1040394,58.9296491 29.8380347,59.7552632 31.122794,59.7552632 C31.786919,59.7552632 32.0578449,59.514386 32.2501667,59.514386 C32.3375046,59.514386 32.3375046,59.5401754 32.3375046,59.5747368 C32.3375046,59.6350877 32.3549722,59.6864912 32.459956,59.6864912 L32.9317593,59.6864912 C33.0016296,59.6864912 33.0891458,59.6692982 33.0891458,59.5317544 Z" id="Fill-2" fill="#1A181B"></path>
                <path d="M37.2040116,56.9338596 C37.2040116,57.0285965 37.1779884,57.0457895 37.099206,57.0457895 L35.1153866,57.0457895 C35.0280486,57.0457895 35.010581,57.0112281 35.010581,56.9598246 C35.010581,56.6757895 35.2027245,55.8931579 36.1465093,55.8931579 C36.6010231,55.8931579 37.2040116,56.1254386 37.2040116,56.9338596 Z M38.0517245,57.4673684 L38.0517245,57.2608772 C38.0517245,56.5726316 37.7895324,55.3080702 36.1728889,55.3080702 C34.8182593,55.3080702 34.1541343,56.3577193 34.1541343,57.5791228 C34.1541343,59.2650877 35.237838,59.7552632 36.3650324,59.7552632 C36.8981505,59.7552632 37.5186065,59.6607018 37.7371296,59.497193 C37.8244676,59.4370175 37.8332014,59.3854386 37.8332014,59.2736842 L37.8332014,58.9812281 C37.8332014,58.9122807 37.807,58.8435088 37.7109282,58.8435088 C37.6497917,58.8435088 37.6235903,58.8607018 37.5711875,58.8864912 C37.4050671,58.9726316 36.9854884,59.1531579 36.4525486,59.1531579 C35.6659722,59.1531579 35.010581,58.7403509 35.010581,57.7424561 C35.010581,57.6564912 35.0629838,57.6221053 35.141588,57.6221053 L37.8945162,57.6221053 C37.9643866,57.6221053 38.0517245,57.6049123 38.0517245,57.4673684 Z" id="Fill-3" fill="#1A181B"></path>
                <path d="M41.4500625,55.9361404 L41.4500625,55.5922807 C41.4500625,55.4373684 41.4500625,55.3080702 41.0655972,55.3080702 C40.5150116,55.3080702 40.2178843,55.6352632 39.9644259,55.6352632 C39.9120231,55.6352632 39.8683542,55.6005263 39.8683542,55.5577193 L39.8683542,55.4889474 C39.8683542,55.4287719 39.8508866,55.3770175 39.746081,55.3770175 L39.2740995,55.3770175 C39.2044074,55.3770175 39.116713,55.394386 39.116713,55.5319298 L39.116713,59.5317544 C39.116713,59.6692982 39.2044074,59.6864912 39.2740995,59.6864912 L39.7721042,59.6864912 C39.842331,59.6864912 39.9294907,59.6692982 39.9294907,59.5317544 L39.9294907,56.6757895 C39.9294907,56.3577193 40.0257407,55.9963158 40.6898657,55.9963158 C41.1529352,55.9963158 41.1966042,56.0652632 41.3277894,56.0652632 C41.4151273,56.0652632 41.4500625,56.0135088 41.4500625,55.9361404" id="Fill-4" fill="#1A181B"></path>
                <path d="M47.5163079,59.5317544 L47.5163079,59.2219298 C47.5163079,59.084386 47.4287917,59.0670175 47.3590995,59.0670175 L44.4138495,59.0670175 C44.3352454,59.0670175 44.3003102,59.0585965 44.3003102,59.0070175 C44.3003102,58.9638596 44.3265116,58.9296491 44.3525347,58.8952632 L47.3501875,54.7319298 C47.4287917,54.6201754 47.4464375,54.56 47.4464375,54.4308772 L47.4464375,54.1040351 C47.4464375,53.9664912 47.3590995,53.9491228 47.2890509,53.9491228 L43.5925162,53.9491228 C43.5226458,53.9491228 43.4351296,53.9664912 43.4351296,54.1040351 L43.4351296,54.4136842 C43.4351296,54.5514035 43.5226458,54.5685965 43.5925162,54.5685965 L46.310331,54.5685965 C46.3889352,54.5685965 46.4240486,54.5770175 46.4240486,54.6285965 C46.4240486,54.6717544 46.397669,54.7061404 46.3714676,54.7405263 L43.4263958,58.8177193 C43.3477917,58.9208772 43.3303241,59.0070175 43.3303241,59.1187719 L43.3303241,59.5317544 C43.3303241,59.6692982 43.417662,59.6864912 43.4875324,59.6864912 L47.3590995,59.6864912 C47.4287917,59.6864912 47.5163079,59.6692982 47.5163079,59.5317544" id="Fill-5" fill="#1A181B"></path>
                <path d="M51.9995972,59.5317544 L51.9995972,55.5319298 C51.9995972,55.394386 51.9122593,55.3770175 51.8422106,55.3770175 L51.3440278,55.3770175 C51.2739792,55.3770175 51.1866412,55.394386 51.1866412,55.5319298 L51.1866412,58.6114035 C51.1866412,58.8607018 51.0732801,58.9638596 50.8458449,59.05 C50.671169,59.1187719 50.4264444,59.1617544 50.2255671,59.1617544 C49.8583912,59.1617544 49.5787315,59.0757895 49.4040556,58.8864912 C49.2554028,58.7059649 49.2204676,58.4650877 49.2204676,58.0608772 L49.2204676,55.5319298 C49.2204676,55.394386 49.1331296,55.3770175 49.0632593,55.3770175 L48.5648981,55.3770175 C48.495206,55.3770175 48.4076898,55.394386 48.4076898,55.5319298 L48.4076898,57.9403509 C48.4076898,58.6457895 48.4428032,59.0242105 48.7310185,59.3338596 C49.0019444,59.6350877 49.4564583,59.7552632 49.954463,59.7552632 C50.2255671,59.7552632 50.5836528,59.6950877 50.8372894,59.5917544 C50.9158935,59.5575439 51.0556343,59.514386 51.1606181,59.514386 C51.247956,59.514386 51.247956,59.5401754 51.247956,59.5747368 C51.247956,59.6350877 51.2654236,59.6864912 51.3704074,59.6864912 L51.8422106,59.6864912 C51.9122593,59.6864912 51.9995972,59.6692982 51.9995972,59.5317544" id="Fill-6" fill="#1A181B"></path>
                <path d="M56.7370579,55.4803509 C56.7370579,55.402807 56.6582755,55.3770175 56.5974954,55.3770175 L56.1166019,55.3770175 C56.0119745,55.3770175 55.9768611,55.394386 55.8633218,55.5061404 L54.333838,57.0457895 C54.2989028,57.0801754 54.2727014,57.0887719 54.2463218,57.0887719 C54.193919,57.0887719 54.159162,57.0629825 54.159162,56.985614 L54.159162,53.8201754 C54.159162,53.6826316 54.0718241,53.6652632 54.0017755,53.6652632 L53.5035926,53.6652632 C53.4339005,53.6652632 53.346206,53.6826316 53.346206,53.8201754 L53.346206,59.5317544 C53.346206,59.6692982 53.4339005,59.6864912 53.5035926,59.6864912 L54.0017755,59.6864912 C54.0718241,59.6864912 54.159162,59.6692982 54.159162,59.5317544 L54.159162,57.7424561 C54.159162,57.6564912 54.202831,57.6307018 54.2552338,57.6307018 C54.3076366,57.6307018 54.333838,57.6564912 54.3689514,57.6994737 L55.7758056,59.5659649 C55.8369421,59.6521053 55.8893449,59.6864912 56.0030625,59.6864912 L56.5711157,59.6864912 C56.6498981,59.6864912 56.7285023,59.6692982 56.7285023,59.5747368 C56.7285023,59.5059649 56.6935671,59.4801754 56.6498981,59.4285965 L55.0680116,57.3726316 C55.050544,57.3468421 55.0330764,57.3210526 55.0330764,57.2866667 C55.0330764,57.2522807 55.050544,57.2177193 55.0854792,57.1835088 L56.6582755,55.6264912 C56.7023009,55.5835088 56.7370579,55.5489474 56.7370579,55.4803509" id="Fill-7" fill="#1A181B"></path>
                <path d="M61.0012894,59.5317544 L61.0012894,55.5319298 C61.0012894,55.394386 60.9139514,55.3770175 60.8439028,55.3770175 L60.3458981,55.3770175 C60.2758495,55.3770175 60.1885116,55.394386 60.1885116,55.5319298 L60.1885116,58.6114035 C60.1885116,58.8607018 60.074794,58.9638596 59.8477153,59.05 C59.6730394,59.1187719 59.4283148,59.1617544 59.2272593,59.1617544 C58.8602616,59.1617544 58.5806019,59.0757895 58.4057477,58.8864912 C58.2572731,58.7059649 58.2221597,58.4650877 58.2221597,58.0608772 L58.2221597,55.5319298 C58.2221597,55.394386 58.135,55.3770175 58.0649514,55.3770175 L57.5667685,55.3770175 C57.4970764,55.3770175 57.4095602,55.394386 57.4095602,55.5319298 L57.4095602,57.9403509 C57.4095602,58.6457895 57.4444954,59.0242105 57.7328889,59.3338596 C58.0036366,59.6350877 58.4581505,59.7552632 58.9563333,59.7552632 C59.2272593,59.7552632 59.5855231,59.6950877 59.8389815,59.5917544 C59.9175856,59.5575439 60.0575046,59.514386 60.1623102,59.514386 C60.2498264,59.514386 60.2498264,59.5401754 60.2498264,59.5747368 C60.2498264,59.6350877 60.267294,59.6864912 60.3719213,59.6864912 L60.8439028,59.6864912 C60.9139514,59.6864912 61.0012894,59.6692982 61.0012894,59.5317544" id="Fill-8" fill="#1A181B"></path>
                <path d="M65.9399838,59.5317544 L65.9399838,57.1317544 C65.9399838,56.4264912 65.8963148,56.0478947 65.6077431,55.7384211 C65.3369954,55.4373684 64.8824815,55.3080702 64.3842986,55.3080702 C64.1135509,55.3080702 63.7638426,55.3684211 63.5105625,55.4715789 C63.4317801,55.5061404 63.2918611,55.5489474 63.1870556,55.5489474 C63.0997176,55.5489474 63.0997176,55.5233333 63.0997176,55.4889474 C63.0997176,55.4287719 63.08225,55.3770175 62.9774444,55.3770175 L62.505463,55.3770175 C62.4355926,55.3770175 62.3480764,55.394386 62.3480764,55.5319298 L62.3480764,59.5317544 C62.3480764,59.6692982 62.4355926,59.6864912 62.505463,59.6864912 L63.0034676,59.6864912 C63.0735162,59.6864912 63.1608542,59.6692982 63.1608542,59.5317544 L63.1608542,56.4522807 C63.1608542,56.202807 63.2745718,56.0994737 63.5016505,56.0135088 C63.6765046,55.9447368 63.9124954,55.9017544 64.1135509,55.9017544 C64.4803704,55.9017544 64.7602083,55.9963158 64.9348843,56.185614 C65.083537,56.3663158 65.127206,56.607193 65.127206,57.0112281 L65.127206,59.5317544 C65.127206,59.6692982 65.214544,59.6864912 65.2844144,59.6864912 L65.7825972,59.6864912 C65.8524676,59.6864912 65.9399838,59.6692982 65.9399838,59.5317544" id="Fill-9" fill="#1A181B"></path>
                <path d="M69.2443889,54.172807 L69.2443889,53.8459649 C69.2443889,53.6912281 69.0433333,53.5966667 68.5975532,53.5966667 C68.2829583,53.5966667 68.0209444,53.6482456 67.7760417,53.8459649 C67.4003102,54.1470175 67.4003102,54.6201754 67.4003102,54.8866667 L67.4003102,55.2738596 C67.4003102,55.3514035 67.3566412,55.3770175 67.321706,55.3770175 L66.8586366,55.3770175 C66.788588,55.3770175 66.70125,55.394386 66.70125,55.5319298 L66.70125,55.8157895 C66.70125,55.9533333 66.788588,55.9705263 66.8586366,55.9705263 L67.321706,55.9705263 C67.3566412,55.9705263 67.4003102,55.9963158 67.4003102,56.0738596 L67.4003102,59.5317544 C67.4003102,59.6692982 67.4876481,59.6864912 67.5576968,59.6864912 L68.0558796,59.6864912 C68.1255718,59.6864912 68.2132662,59.6692982 68.2132662,59.5317544 L68.2132662,56.0738596 C68.2132662,55.9963158 68.2567569,55.9705263 68.2918704,55.9705263 L69.0345995,55.9705263 C69.1044699,55.9705263 69.1919861,55.9533333 69.1919861,55.8157895 L69.1919861,55.5319298 C69.1919861,55.394386 69.1044699,55.3770175 69.0345995,55.3770175 L68.2918704,55.3770175 C68.2567569,55.3770175 68.2132662,55.3514035 68.2132662,55.2738596 L68.2132662,54.8780702 C68.2132662,54.594386 68.2043542,54.207193 68.7112708,54.207193 C68.9645509,54.207193 69.0258657,54.3105263 69.1306713,54.3105263 C69.2094537,54.3105263 69.2443889,54.2761404 69.2443889,54.172807" id="Fill-10" fill="#1A181B"></path>
                <path d="M72.4956782,59.445614 L72.4956782,59.1187719 C72.4956782,59.0154386 72.4432755,58.9812281 72.3732269,58.9812281 C72.2598657,58.9812281 72.1374144,59.1445614 71.7092801,59.1445614 C71.3857731,59.1445614 71.2372986,59.0154386 71.1674282,58.8435088 C71.1150255,58.7229825 71.1062917,58.6114035 71.1062917,58.3445614 L71.1062917,56.0738596 C71.1062917,55.9963158 71.1497824,55.9705263 71.1848958,55.9705263 L72.3382917,55.9705263 C72.4085185,55.9705263 72.4956782,55.9533333 72.4956782,55.8157895 L72.4956782,55.5319298 C72.4956782,55.394386 72.4085185,55.3770175 72.3382917,55.3770175 L71.1848958,55.3770175 C71.1497824,55.3770175 71.1062917,55.3514035 71.1062917,55.2738596 L71.1062917,54.3878947 C71.1062917,54.2501754 71.0187755,54.2331579 70.9489051,54.2331579 L70.4507222,54.2331579 C70.3808519,54.2331579 70.2935139,54.2501754 70.2935139,54.3878947 L70.2935139,55.2738596 C70.2935139,55.3514035 70.2496667,55.3770175 70.2147315,55.3770175 L69.751662,55.3770175 C69.6817917,55.3770175 69.5944537,55.394386 69.5944537,55.5319298 L69.5944537,55.8157895 C69.5944537,55.9533333 69.6817917,55.9705263 69.751662,55.9705263 L70.2147315,55.9705263 C70.2496667,55.9705263 70.2935139,55.9963158 70.2935139,56.0738596 L70.2935139,58.3445614 C70.2935139,58.8522807 70.3546505,59.2563158 70.6517778,59.497193 C70.8965023,59.6950877 71.2547662,59.7552632 71.5693611,59.7552632 C71.883956,59.7552632 72.4956782,59.6778947 72.4956782,59.445614" id="Fill-11" fill="#1A181B"></path>
                <path d="M34.0844421,45.0670175 C34.0844421,46.2814035 33.4538264,46.8749123 32.0692523,46.8749123 L31.2741204,46.8749123 C31.2194005,46.8749123 31.1372315,46.8347368 31.1372315,46.7131579 L31.1372315,43.4882456 C31.1372315,43.3533333 31.2194005,43.3264912 31.2741204,43.3264912 L32.0967014,43.3264912 C33.4814537,43.3264912 34.0844421,43.8931579 34.0844421,45.0670175 Z M35.4827407,44.9861404 C35.4827407,44.0819298 35.1264375,43.3264912 34.4683727,42.8810526 C33.9610995,42.5438596 33.3853819,42.4222807 32.0967014,42.4222807 L30.054419,42.4222807 C29.9444444,42.4222807 29.8075556,42.4494737 29.8075556,42.6652632 L29.8075556,51.1791228 C29.8075556,51.3952632 29.9444444,51.4221053 30.054419,51.4221053 L30.8903681,51.4221053 C31.0001644,51.4221053 31.1372315,51.3952632 31.1372315,51.1791228 L31.1372315,47.9410526 C31.1372315,47.8059649 31.2194005,47.7789474 31.2741204,47.7789474 L31.9596343,47.7789474 C33.0151759,47.7789474 33.6595162,47.6575439 34.1940602,47.3608772 C35.0303657,46.9019298 35.4827407,46.0250877 35.4827407,44.9861404 Z" id="Fill-12" fill="#1A181B"></path>
                <path d="M40.2260833,49.6949123 C40.2260833,50.0592982 40.1713634,50.2078947 39.8287847,50.3696491 C39.4860278,50.5317544 39.0473773,50.585614 38.6632685,50.585614 C37.9642083,50.585614 37.4022153,50.3563158 37.4022153,49.5870175 C37.4022153,48.71 38.0601019,48.5482456 38.8003356,48.3052632 L39.8970509,47.9410526 C40.0205718,47.9005263 40.0205718,47.887193 40.1166435,47.887193 C40.1988125,47.887193 40.2260833,47.9273684 40.2260833,48.0219298 L40.2260833,49.6949123 Z M41.5010394,51.1791228 L41.5010394,46.9019298 C41.5010394,45.89 41.4049676,45.4719298 41.0349398,45.1075439 C40.8294282,44.9050877 40.3770532,44.554386 39.0746481,44.554386 C37.7037986,44.554386 36.8674931,44.8915789 36.6755278,45.0264912 C36.5384606,45.1210526 36.5384606,45.2019298 36.5384606,45.3638596 L36.5384606,45.8631579 C36.5384606,45.9845614 36.5931806,46.0791228 36.7167014,46.0791228 C36.8127731,46.0791228 36.8537685,46.0521053 36.9359375,46.0114035 C37.2375208,45.8496491 37.8134167,45.5122807 38.9513056,45.5122807 C40.1301898,45.5122807 40.2260833,45.9710526 40.2260833,46.4163158 L40.2260833,46.6321053 C40.2260833,46.9019298 40.0617454,46.9829825 39.8287847,47.0503509 L38.2246181,47.5363158 C36.9635648,47.9273684 36.0586366,48.3591228 36.0586366,49.6680702 C36.0586366,50.5991228 36.497287,51.53 38.3479606,51.53 C39.389956,51.53 39.8697801,51.1522807 40.1852662,51.1522807 C40.3221551,51.1522807 40.3221551,51.1926316 40.3221551,51.2466667 C40.3221551,51.3412281 40.3494259,51.4221053 40.5139421,51.4221053 L41.2543542,51.4221053 C41.3641505,51.4221053 41.5010394,51.3952632 41.5010394,51.1791228 Z" id="Fill-13" fill="#1A181B"></path>
                <path d="M47.0691019,45.5392982 L47.0691019,44.9996491 C47.0691019,44.7566667 47.0691019,44.554386 46.4661134,44.554386 C45.6023588,44.554386 45.1362593,45.0670175 44.7386042,45.0670175 C44.6566134,45.0670175 44.5878125,45.0129825 44.5878125,44.945614 L44.5878125,44.8375439 C44.5878125,44.7433333 44.5603634,44.6621053 44.3962037,44.6621053 L43.6557917,44.6621053 C43.5461736,44.6621053 43.4091065,44.6892982 43.4091065,44.9050877 L43.4091065,51.1791228 C43.4091065,51.3952632 43.5461736,51.4221053 43.6557917,51.4221053 L44.4370208,51.4221053 C44.5468171,51.4221053 44.6838843,51.3952632 44.6838843,51.1791228 L44.6838843,46.6994737 C44.6838843,46.2003509 44.8346759,45.6336842 45.8764931,45.6336842 C46.6030023,45.6336842 46.671625,45.7415789 46.8773148,45.7415789 C47.0142037,45.7415789 47.0691019,45.6607018 47.0691019,45.5392982" id="Fill-14" fill="#1A181B"></path>
                <path d="M52.4448426,51.044386 L52.4448426,50.5317544 C52.4448426,50.3696491 52.3626736,50.315614 52.2528773,50.315614 C52.0748148,50.315614 51.8828495,50.5719298 51.2110602,50.5719298 C50.703787,50.5719298 50.4708264,50.3696491 50.3612083,50.0998246 C50.2786829,49.9110526 50.2651366,49.735614 50.2651366,49.317193 L50.2651366,45.7550877 C50.2651366,45.6336842 50.333581,45.5929825 50.3886574,45.5929825 L52.1979792,45.5929825 C52.3077755,45.5929825 52.4448426,45.5661404 52.4448426,45.3505263 L52.4448426,44.9050877 C52.4448426,44.6892982 52.3077755,44.6621053 52.1979792,44.6621053 L50.3886574,44.6621053 C50.333581,44.6621053 50.2651366,44.6217544 50.2651366,44.5003509 L50.2651366,43.1105263 C50.2651366,42.8947368 50.1280694,42.8675439 50.0184514,42.8675439 L49.2372222,42.8675439 C49.1274259,42.8675439 48.9903588,42.8947368 48.9903588,43.1105263 L48.9903588,44.5003509 C48.9903588,44.6217544 48.9217361,44.6621053 48.8670162,44.6621053 L48.1403287,44.6621053 C48.0305324,44.6621053 47.8936435,44.6892982 47.8936435,44.9050877 L47.8936435,45.3505263 C47.8936435,45.5661404 48.0305324,45.5929825 48.1403287,45.5929825 L48.8670162,45.5929825 C48.9217361,45.5929825 48.9903588,45.6336842 48.9903588,45.7550877 L48.9903588,49.317193 C48.9903588,50.1133333 49.0862523,50.7473684 49.5523519,51.1252632 C49.9362824,51.4357895 50.4982755,51.53 50.9916458,51.53 C51.4851944,51.53 52.4448426,51.4085965 52.4448426,51.044386" id="Fill-15" fill="#1A181B"></path>
                <path d="M59.6156458,51.1791228 L59.6156458,47.4147368 C59.6156458,46.3084211 59.5472014,45.7145614 59.0944699,45.2289474 C58.6699005,44.7566667 57.9569375,44.554386 57.1755301,44.554386 C56.7506042,44.554386 56.2021574,44.6487719 55.8046806,44.8107018 C55.681338,44.8647368 55.4619236,44.9321053 55.2975856,44.9321053 C55.1603403,44.9321053 55.1603403,44.8915789 55.1603403,44.8375439 C55.1603403,44.7433333 55.1328912,44.6621053 54.9685532,44.6621053 L54.2283194,44.6621053 C54.1185231,44.6621053 53.981456,44.6892982 53.981456,44.9050877 L53.981456,51.1791228 C53.981456,51.3952632 54.1185231,51.4221053 54.2283194,51.4221053 L55.0095486,51.4221053 C55.1193449,51.4221053 55.2562338,51.3952632 55.2562338,51.1791228 L55.2562338,46.3487719 C55.2562338,45.9575439 55.4344745,45.795614 55.790956,45.6607018 C56.0650903,45.552807 56.4352963,45.4852632 56.7506042,45.4852632 C57.3263218,45.4852632 57.764794,45.6336842 58.0392847,45.9305263 C58.2720671,46.2138596 58.3408681,46.5917544 58.3408681,47.2257895 L58.3408681,51.1791228 C58.3408681,51.3952632 58.4777569,51.4221053 58.587375,51.4221053 L59.3689606,51.4221053 C59.4785787,51.4221053 59.6156458,51.3952632 59.6156458,51.1791228" id="Fill-16" fill="#1A181B"></path>
                <path d="M66.0052199,47.104386 C66.0052199,47.2526316 65.9642245,47.2798246 65.8408819,47.2798246 L62.7289769,47.2798246 C62.592088,47.2798246 62.5646389,47.2257895 62.5646389,47.1449123 C62.5646389,46.6994737 62.866044,45.4719298 64.3465116,45.4719298 C65.0592963,45.4719298 66.0052199,45.8359649 66.0052199,47.104386 Z M67.3350741,47.9410526 L67.3350741,47.617193 C67.3350741,46.5377193 66.9236944,44.554386 64.3878634,44.554386 C62.2630556,44.554386 61.2210602,46.2003509 61.2210602,48.1164912 C61.2210602,50.7610526 62.9209421,51.53 64.6892685,51.53 C65.5255741,51.53 66.4985903,51.3817544 66.8415255,51.1252632 C66.9785926,51.0308772 66.9923171,50.9498246 66.9923171,50.7745614 L66.9923171,50.315614 C66.9923171,50.2078947 66.9513218,50.0998246 66.8003519,50.0998246 C66.7046366,50.0998246 66.6632847,50.1268421 66.5811157,50.1673684 C66.320706,50.3022807 65.6626412,50.585614 64.8265139,50.585614 C63.5927315,50.585614 62.5646389,49.9378947 62.5646389,48.372807 C62.5646389,48.2378947 62.6468079,48.1838596 62.7703287,48.1838596 L67.0883889,48.1838596 C67.1980069,48.1838596 67.3350741,48.1568421 67.3350741,47.9410526 Z" id="Fill-17" fill="#1A181B"></path>
                <path d="M72.5286528,45.5392982 L72.5286528,44.9996491 C72.5286528,44.7566667 72.5286528,44.554386 71.9254861,44.554386 C71.0619097,44.554386 70.5958102,45.0670175 70.1981551,45.0670175 C70.1158079,45.0670175 70.0473634,45.0129825 70.0473634,44.945614 L70.0473634,44.8375439 C70.0473634,44.7433333 70.0199144,44.6621053 69.8555764,44.6621053 L69.1151644,44.6621053 C69.0057245,44.6621053 68.8683009,44.6892982 68.8683009,44.9050877 L68.8683009,51.1791228 C68.8683009,51.3952632 69.0057245,51.4221053 69.1151644,51.4221053 L69.8965718,51.4221053 C70.0063681,51.4221053 70.1434352,51.3952632 70.1434352,51.1791228 L70.1434352,46.6994737 C70.1434352,46.2003509 70.2940486,45.6336842 71.336044,45.6336842 C72.062375,45.6336842 72.1311759,45.7415789 72.3366875,45.7415789 C72.4737546,45.7415789 72.5286528,45.6607018 72.5286528,45.5392982" id="Fill-18" fill="#1A181B"></path>
                <path d="M33.7965833,38.2985965 C33.7965833,37.2126316 33.1727407,36.7401754 32.4653032,36.2915789 L31.5536019,35.7131579 C30.7019676,35.17 30.4859398,34.8984211 30.4859398,34.3433333 C30.4859398,34.1075439 30.5700694,33.3517544 31.7575093,33.3517544 C32.5251921,33.3517544 32.9570694,33.6350877 33.2089236,33.7650877 C33.3048171,33.8122807 33.364706,33.8714035 33.484662,33.8714035 C33.6286806,33.8714035 33.6527431,33.7770175 33.6527431,33.6824561 L33.6527431,33.21 C33.6527431,33.0684211 33.6286806,32.9977193 33.5087245,32.9149123 C33.2449282,32.7378947 32.5733171,32.49 31.7696296,32.49 C30.3540417,32.49 29.3464468,33.1157895 29.3464468,34.5680702 C29.3464468,35.6892982 30.1021875,36.1617544 30.7737986,36.5985965 L31.7334468,37.2242105 C32.2373333,37.5549123 32.6451481,37.8380702 32.6451481,38.5229825 C32.6451481,39.1840351 32.2134491,39.6917544 31.1816134,39.6917544 C30.2820324,39.6917544 29.8503333,39.3966667 29.6343056,39.2784211 C29.538412,39.2314035 29.4783449,39.1724561 29.3585671,39.1724561 C29.2147269,39.1724561 29.1904861,39.2668421 29.1904861,39.3612281 L29.1904861,39.8335088 C29.1904861,39.9750877 29.2147269,40.0578947 29.3345046,40.1285965 C29.6343056,40.3175439 30.3420995,40.5536842 31.2177963,40.5536842 C32.3211065,40.5536842 33.7965833,40.1405263 33.7965833,38.2985965" id="Fill-19" fill="#8A8B8A"></path>
                <path d="M39.8202292,39.8924561 L39.8202292,39.4794737 C39.8202292,39.3849123 39.7844028,39.2905263 39.6523264,39.2905263 C39.568375,39.2905263 39.5323704,39.3138596 39.4603611,39.3494737 C39.2323912,39.4673684 38.7525671,39.7154386 38.0208889,39.7154386 C36.6653681,39.7154386 36.113713,38.7826316 36.113713,37.5312281 C36.113713,36.2915789 36.7013727,35.2878947 38.1048403,35.2878947 C38.8363403,35.2878947 39.2323912,35.5357895 39.4603611,35.6540351 C39.5323704,35.6892982 39.568375,35.7131579 39.6523264,35.7131579 C39.7961667,35.7131579 39.8202292,35.6185965 39.8202292,35.5242105 L39.8202292,35.0873684 C39.8202292,34.9457895 39.8202292,34.8747368 39.7002731,34.7922807 C39.4603611,34.6150877 38.7285046,34.4498246 38.0927199,34.4498246 C35.2020116,34.4498246 34.938037,36.6575439 34.938037,37.5666667 C34.938037,39.0305263 35.6219468,40.5536842 37.9367593,40.5536842 C38.620669,40.5536842 39.3883519,40.4236842 39.688331,40.1992982 C39.8081088,40.1168421 39.8202292,40.0457895 39.8202292,39.8924561" id="Fill-20" fill="#8A8B8A"></path>
                <path d="M46.3349282,40.2466667 L46.3349282,36.9526316 C46.3349282,35.9845614 46.2748611,35.4650877 45.8788102,35.0401754 C45.5071782,34.6270175 44.8833356,34.4498246 44.1996042,34.4498246 C43.2759606,34.4498246 42.7481898,34.8394737 42.628412,34.8394737 C42.5442824,34.8394737 42.5202199,34.7803509 42.5202199,34.6859649 L42.5202199,32.407193 C42.5202199,32.1947368 42.3644375,32.1947368 42.3043704,32.1947368 L41.6206389,32.1947368 C41.5605718,32.1947368 41.4047894,32.1947368 41.4047894,32.407193 L41.4047894,40.2466667 C41.4047894,40.4592982 41.5605718,40.4592982 41.6206389,40.4592982 L42.3043704,40.4592982 C42.3644375,40.4592982 42.5202199,40.4592982 42.5202199,40.2466667 L42.5202199,36.02 C42.5202199,35.6777193 42.6761806,35.5357895 42.9881019,35.4178947 C43.2281921,35.3235088 43.5518773,35.264386 43.827794,35.264386 C44.3315023,35.264386 44.7154329,35.394386 44.9553449,35.6540351 C45.1592523,35.9019298 45.2193194,36.2326316 45.2193194,36.7873684 L45.2193194,40.2466667 C45.2193194,40.4592982 45.3752801,40.4592982 45.435169,40.4592982 L46.1189005,40.4592982 C46.1789676,40.4592982 46.3349282,40.4592982 46.3349282,40.2466667" id="Fill-21" fill="#8A8B8A"></path>
                <path d="M53.1132454,40.2466667 L53.1132454,34.7568421 C53.1132454,34.5680702 52.9932894,34.5442105 52.8972176,34.5442105 L52.2136644,34.5442105 C52.1175926,34.5442105 51.9976366,34.5680702 51.9976366,34.7568421 L51.9976366,38.9835088 C51.9976366,39.3259649 51.8416759,39.4673684 51.5297546,39.5854386 C51.2898426,39.68 50.954037,39.7389474 50.6782986,39.7389474 C50.1745903,39.7389474 49.7904815,39.6208772 49.5507477,39.3612281 C49.3468403,39.1133333 49.2987153,38.7826316 49.2987153,38.2278947 L49.2987153,34.7568421 C49.2987153,34.5680702 49.1789375,34.5442105 49.083044,34.5442105 L48.3991343,34.5442105 C48.3032407,34.5442105 48.183463,34.5680702 48.183463,34.7568421 L48.183463,38.0626316 C48.183463,39.0305263 48.2312315,39.5501754 48.6271042,39.9750877 C48.9989144,40.3882456 49.6227569,40.5536842 50.3063102,40.5536842 C50.6782986,40.5536842 51.1698866,40.4710526 51.5179907,40.3294737 C51.6256481,40.2821053 51.8176134,40.2229825 51.9616319,40.2229825 C52.081588,40.2229825 52.081588,40.2584211 52.081588,40.3057895 C52.081588,40.3882456 52.1056505,40.4592982 52.2494907,40.4592982 L52.8972176,40.4592982 C52.9932894,40.4592982 53.1132454,40.435614 53.1132454,40.2466667" id="Fill-22" fill="#8A8B8A"></path>
                <path d="M56.1971667,40.2466667 L56.1971667,32.407193 C56.1971667,32.2184211 56.0773889,32.1947368 55.9813171,32.1947368 L55.2975856,32.1947368 C55.2016921,32.1947368 55.0817361,32.2184211 55.0817361,32.407193 L55.0817361,40.2466667 C55.0817361,40.435614 55.2016921,40.4592982 55.2975856,40.4592982 L55.9813171,40.4592982 C56.0773889,40.4592982 56.1971667,40.435614 56.1971667,40.2466667" id="Fill-23" fill="#8A8B8A"></path>
                <path d="M61.8477546,36.6812281 C61.8477546,36.8110526 61.8119282,36.8347368 61.7039144,36.8347368 L58.9811088,36.8347368 C58.8611528,36.8347368 58.8370903,36.7873684 58.8370903,36.7166667 C58.8370903,36.3268421 59.1008866,35.2526316 60.3963403,35.2526316 C61.0200046,35.2526316 61.8477546,35.5712281 61.8477546,36.6812281 Z M63.0113102,37.4131579 L63.0113102,37.1298246 C63.0113102,36.1852632 62.6514421,34.4498246 60.4323449,34.4498246 C58.573294,34.4498246 57.6614144,35.8903509 57.6614144,37.5666667 C57.6614144,39.8807018 59.1490116,40.5536842 60.6963194,40.5536842 C61.4278194,40.5536842 62.2796319,40.4236842 62.5794329,40.1992982 C62.6993889,40.1168421 62.711331,40.0457895 62.711331,39.8924561 L62.711331,39.4910526 C62.711331,39.3966667 62.6753264,39.3021053 62.5434282,39.3021053 C62.4594769,39.3021053 62.4234722,39.3259649 62.3516412,39.3612281 C62.1238495,39.4794737 61.5479537,39.727193 60.8162755,39.727193 C59.7366713,39.727193 58.8370903,39.1603509 58.8370903,37.7910526 C58.8370903,37.6729825 58.9089213,37.625614 59.0171134,37.625614 L62.7954606,37.625614 C62.8913542,37.625614 63.0113102,37.6021053 63.0113102,37.4131579 Z" id="Fill-24" fill="#8A8B8A"></path>
                <path d="M69.4028449,40.2466667 L69.4028449,36.9526316 C69.4028449,35.9845614 69.342956,35.4650877 68.9470833,35.0401754 C68.5752731,34.6270175 67.9514306,34.4498246 67.2676991,34.4498246 C66.8960671,34.4498246 66.4160648,34.5326316 66.0683171,34.6740351 C65.9603032,34.7215789 65.768338,34.7803509 65.6244977,34.7803509 C65.5043634,34.7803509 65.5043634,34.7449123 65.5043634,34.6977193 C65.5043634,34.6150877 65.4804792,34.5442105 65.3366389,34.5442105 L64.688912,34.5442105 C64.5930185,34.5442105 64.4728843,34.5680702 64.4728843,34.7568421 L64.4728843,40.2466667 C64.4728843,40.435614 64.5930185,40.4592982 64.688912,40.4592982 L65.3724653,40.4592982 C65.468537,40.4592982 65.5884931,40.435614 65.5884931,40.2466667 L65.5884931,36.02 C65.5884931,35.6777193 65.7442755,35.5357895 66.0561968,35.4178947 C66.296287,35.3235088 66.6199722,35.264386 66.8960671,35.264386 C67.3995972,35.264386 67.7835278,35.394386 68.0234398,35.6540351 C68.2273472,35.9019298 68.2874144,36.2326316 68.2874144,36.7873684 L68.2874144,40.2466667 C68.2874144,40.435614 68.4073704,40.4592982 68.5032639,40.4592982 L69.1869954,40.4592982 C69.2828889,40.4592982 69.4028449,40.435614 69.4028449,40.2466667" id="Fill-25" fill="#8A8B8A"></path>
                <g id="Group-32">
                    <polygon id="Clip-27" points="0 0.117719298 76.8898076 0.117719298 76.8898076 59.9894737 0 59.9894737"></polygon>
                    <path d="M72.6190208,39.774386 C72.6190208,39.1840351 72.3550463,38.9480702 71.7554444,38.9480702 C71.191669,38.9480702 70.9036319,39.1724561 70.9036319,39.7389474 C70.9036319,40.3175439 71.1676065,40.5536842 71.7433241,40.5536842 C72.2951574,40.5536842 72.6190208,40.352807 72.6190208,39.774386 Z M72.6190208,35.3115789 C72.6190208,34.7215789 72.3550463,34.4852632 71.7554444,34.4852632 C71.191669,34.4852632 70.9036319,34.7094737 70.9036319,35.2763158 C70.9036319,35.842807 71.1676065,36.1026316 71.7433241,36.1026316 C72.3070995,36.1026316 72.6190208,35.8903509 72.6190208,35.3115789 Z" id="Fill-26" fill="#8A8B8A"></path>
                    <path d="M0.0677314815,28.1424561 C0.0303009259,28.1329825 0.00320833333,28.1012281 0.000178240741,28.0633333 C-0.00231712963,28.025614 0.019962963,27.9898246 0.0556111111,27.9757895 C0.349351852,27.8589474 0.640240741,27.725614 0.927386574,27.575614 C2.60481019,26.6977193 3.87424074,25.3849123 4.63925,23.8998246 C4.65689583,23.8654386 4.69503935,23.8466667 4.73318287,23.852807 C6.4929537,24.1389474 8.27981713,24.2103509 9.61644444,24.2103509 C10.9270486,24.2103509 11.8018542,24.1422807 11.8029236,24.1422807 C26.1382917,22.8573684 37.8790093,12.9142105 41.7323958,0.180350877 C41.7455856,0.136315789 41.7915718,0.11 41.8372014,0.119649123 C41.8826528,0.129824561 41.9127755,0.172807018 41.9058241,0.21877193 C39.8788704,13.4273684 29.6052523,24.9368421 15.5176389,28.1912281 C12.9313657,28.7882456 10.3582824,29.0745614 7.83884954,29.0745614 C5.1725463,29.0745614 2.5659537,28.7536842 0.0677314815,28.1424561" id="Fill-28" fill="#D8232A"></path>
                    <path d="M12.5387014,15.9445614 C12.5387014,13.277193 14.7355185,11.1150877 17.4454907,11.1150877 C20.155463,11.1150877 22.3522801,13.277193 22.3522801,15.9445614 C22.3522801,18.6119298 20.155463,20.7742105 17.4454907,20.7742105 C14.7355185,20.7742105 12.5387014,18.6119298 12.5387014,15.9445614" id="Fill-29" fill="#1A181B"></path>
                    <path d="M76.1276898,19.2449123 C76.3629676,19.3070175 76.5989583,19.3563158 76.8335231,19.3929825 C76.8620417,19.3973684 76.8846782,19.4192982 76.888956,19.4477193 C76.8935903,19.4757895 76.8789745,19.5031579 76.8533079,19.5164912 C73.5312569,21.1796491 69.7297384,22.1178947 65.6642454,22.1173684 C65.6437477,22.1173684 65.6228935,22.1175439 65.6020394,22.1175439 C65.5917014,22.1175439 65.5813634,22.1175439 65.5708472,22.1173684 C54.7186597,22.0785965 45.2378565,15.3736842 41.4923056,6.0577193 C41.479294,6.0254386 41.494088,5.98929825 41.5256366,5.97403509 C41.5571852,5.95929825 41.5953287,5.97105263 41.6124398,6.00105263 C46.0623981,13.7157895 54.7027963,18.7770175 64.093588,18.7766667 C65.2501921,18.7766667 66.4183819,18.7001754 67.5910278,18.5421053 C67.5926319,18.5417544 68.2567569,18.444386 69.2297731,18.2222807 C70.2031458,18 71.4834491,17.6531579 72.7083194,17.1564912 C72.7352338,17.1454386 72.7664259,17.1531579 72.7851412,17.1750877 C73.5986319,18.1338596 74.7514931,18.8819298 76.1276898,19.2449123" id="Fill-30" fill="#F1CC1F"></path>
                    <path d="M4.11967824,59.994386 C4.07101852,59.9787719 4.03893519,59.9333333 4.04125231,59.8833333 C4.68684028,44.3764912 11.7826042,34.2929825 22.1045255,28.4212281 C28.5249352,24.46 37.2840417,21.9640351 45.6093102,21.9633333 C49.2709097,21.9633333 52.8489144,22.4463158 56.1071551,23.5029825 C56.1638356,23.5214035 56.1964537,23.5807018 56.1814815,23.6377193 C56.1661528,23.6949123 56.1078681,23.7305263 56.0492269,23.7191228 C54.3208264,23.3812281 52.5074051,23.2247368 50.6490671,23.2247368 C40.7715,23.222807 29.6148773,27.6487719 23.0946528,32.6349123 L23.0249606,32.5466667 L23.0934051,32.6361404 C15.8047847,38.0505263 10.7208241,45.6787719 9.34213194,55.9370175 C9.33678472,55.977193 9.31022685,56.0107018 9.27243981,56.0261404 C7.12535185,56.8910526 5.33403241,58.3391228 4.24908102,59.9496491 C4.22769213,59.9815789 4.19204398,60 4.15461343,60 C4.14302778,60 4.13126389,59.9982456 4.11967824,59.994386" id="Fill-31" fill="#8A8B8A"></path>
                </g>
            </g>
        </g>
    </g>
</svg>